<!-- <svg xmlns="http://www.w3.org/2000/svg" preserveAspectRatio="xMidYMid" viewBox="0 0 256 256"><path d="M128 0C57.33 0 0 57.33 0 128s57.33 128 128 128 128-57.33 128-128S198.67 0 128 0Zm-6.67 230.605v-80.288H76.699l64.128-124.922v80.288h42.966L121.33 230.605Z" fill="#ff8434"/></svg> -->


<svg xmlns="http://www.w3.org/2000/svg" aria-hidden="true" role="img" preserveAspectRatio="xMidYMid" viewBox="0 0 510.88 512" fill="#ff8434" alt="EmailJS" class="logo navbar-logo"><rect x="270.57" width="240.31" height="240.31" rx="24" fill="#ff8434"></rect> <path d="M215.12 254.73V68.5a29.16 29.16 0 0 0-8.55-20.64 29.19 29.19 0 0 0-41.28 0L16.18 197a55.27 55.27 0 0 0 0 78.14l220.71 220.68a55.27 55.27 0 0 0 78.14 0l149.11-149.11a29.19 29.19 0 0 0 0-41.28l-1.14-1.12a29.16 29.16 0 0 0-20.64-8.55H256.15a41 41 0 0 1-41.03-41.03z" fill="inherit"></path></svg>
